# xmcd
#
# Track frame offsets:
#	150
#	23169
#	42312
#	61002
#	97652
#	119490
#	141585
#	157834
#	181680
#	197572
#	219722
#	234980
#	253665
#	275272
#
# Disc length: 3928 seconds
# Revision: 0
# Processed by: cddbd v1.5.2PL0 Copyright (c) Steve Scherf et al.
# Submitted via: dBpowerAMP V12.0
#
DISCID=b80f560e
DTITLE=Latvian Blues Band - When the Sun Goes Down
DYEAR=2010
DGENRE=Blues
TTITLE0=Never meant to hurt ya'
TTITLE1=Trapped
TTITLE2=Good bye
TTITLE3=There are days
TTITLE4=When the sun goes down
TTITLE5=I'm done
TTITLE6=The way I am
TTITLE7=In the dark
TTITLE8=4 days in Memphis
TTITLE9=Obsession
TTITLE10=Take me babe
TTITLE11=Ain't gonna get drunk no more
TTITLE12=What's wrong with me
TTITLE13=For you
EXTD=
EXTT0=
EXTT1=
EXTT2=
EXTT3=
EXTT4=
EXTT5=
EXTT6=
EXTT7=
EXTT8=
EXTT9=
EXTT10=
EXTT11=
EXTT12=
EXTT13=
PLAYORDER=
